<?xml version="1.0" encoding="UTF-8"?>
<svg id="Layer_1" xmlns="http://www.w3.org/2000/svg" viewBox="0 0 842.67 596.25">
  <defs>
    <style>
      .cls-1 {
        fill: #fff;
        fill-rule: evenodd;
      }

      .cls-2 {
        fill: none;
        stroke: #91522d;
        stroke-linecap: square;
        stroke-linejoin: bevel;
        stroke-width: .74px;
      }
    </style>
  </defs>
  <path class="cls-1" d="M0,0h842.67v596.25H0V0" vector-effect="none"/>
  <path class="cls-1" d="M.48.48h841.68v595.13H.48V.48" vector-effect="none"/>
  <rect x=".48" y=".48" width="841.71" height="595.05"/>
  <g>
    <path class="cls-2" d="M323.18,209.94l-1.97-1.07-3.93-11.78,5.89-5.89,10.31,5.89v11.78l-10.31,1.07" vector-effect="none"/>
    <path class="cls-2" d="M358.53,214.76l-10.31-5.89,10.31-5.89,11.78,1.96,5.89,3.93-5.89,3.93-11.78,1.96" vector-effect="none"/>
    <path class="cls-2" d="M370.32,235.38l-3.93-2.95,3.93-3.93,11.78-1.96,10.31,5.89-10.31,10.31-11.78-7.36" vector-effect="none"/>
    <path class="cls-2" d="M382.1,270.73l-1.96-2.95-1.97-11.78,3.93-11,11.78,5.11,4.71,5.89,7.07,5.05,5.05-5.05-4.64-11.78-.41-.78-11-11,11-7.86,3.93-3.93,7.86-5.89,11.78-5.49.54-.41,11.25-5.05,11.78-4.38,11.78-1.95h11.78l11.38,11.38-6.96,11.78-4.42,4.42-7.36,7.36-4.42,3.21-9.43,8.57.59,11.78,8.84,10.1,3.93,1.68-1.96,11.79-1.97,2.94-7.07,8.84,7.07,7.07h11.78l5.89,4.71-5.89,5.89-11.78-1.18-11.78-.78-11.78-.98-11.78,2.1-11.78-1.84-11.78-1.91-1.97-1.31-9.82-10.71-.69-1.07-4.02-11.78-7.07-8.84" vector-effect="none"/>
    <path class="cls-2" d="M511.72,200.03l-10.31-2.95,10.31-2.36,5.89,2.36-5.89,2.95" vector-effect="none"/>
    <path class="cls-2" d="M818.3,444.54l-.21-.18-11.6-11.6-.18-.24-8.25-11.55-2.23-11.78,5.04-11.78,5.44-6.43,5.89-5.36-5.89-6.55-3.37-5.24-8.42-9.82-1.07-1.97-8.75-11.78-1.96-3.37-1.9-8.42-9.72-11.78-.17-.18-4.08-11.6.42-11.78-1.95-11.78-3.45-11.78-2.72-5.05-2.14-6.74-1.79-11.78,1.4-11.78-.19-11.78-4.78-11.78,1.07-11.78,6.43-10.1,1.47-1.68,6.94-11.78,3.37-3.37,11.78-8.25.27-.17" vector-effect="none"/>
    <path class="cls-2" d="M809.03,444.54l-2.72-2.72-11.62-9.06-.17-.24-8.25-11.55-2.36-11.78,6.19-11.78,4.42-3.22,7.25-8.57-7.13-11.78-.12-.14-6.43-11.65-5.36-6.55-3.63-5.24-2.08-11.78-6.08-7.25-4.91-4.53-3.7-11.78.89-11.78-3.5-11.78-.56-1.47-4.34-10.31-3.16-11.79-4.17-11.78.73-11.78-.71-11.78-.13-.27-8.84-11.51-2.95-5.89-11-5.89-.79-.54-11.78-7.32-11.78-2.24-2.95-1.68-8.84-7.07-11.78-2.36-11.78,2.36-11.78,1.18-11.78,1.96-11.79,3.69-11.78-.04-1.47.27-10.31.91-2.95-.91-8.84-4.42-11.78-2.45-11.78,1.52-11.78,3-5.89,2.36-5.89,1.47-11.78,8.35-2.36,1.96-9.42,3.63-11.79,2.27-11.78,5.71-.33.18-11.46,7.36-4.42,4.42-7.37,5.89-8.42,5.89,3.37,11.78,5.05,3.22,11.78,4.29,5.89,4.28-2.95,11.79,2.95,11.78,5.89,2.94,11.78,6.87,1.47,1.97,10.31,9.17,4.71,2.62,7.07,3.93,11.78,2.8,11.78,3.74,1.96,1.31.39,11.78,9.43,6.73,8.84,5.05,2.95,2.36,9.43,9.43,2.36,3.93,11.78,4.91,7.86,2.94,3.93,2.36,11.78,7.07,11.79.67,5.89,1.68-5.89,10.31-11.79-6.38-11.78,5.5-11.78-2.69-11.78-.84-11.78,2.95-11.78-.98-7.86-7.86-3.93-5.89-5.89-5.89-5.89-2.94-11.25-8.84-.54-1.47-10.31-10.31-1.47-.54-1.48.54-10.31,2.95-11.78.98h-11.78l-10.31-3.93-1.48-.27-11.78-.13-11.78-8.43-4.71-2.95-7.07-5.89-11.25-5.89-.54-.27-11.78-8.89-2.95-2.62-8.84-3.93-11.65-7.86-.14-.15-7.62-11.63-4.16-7.07-3.93-4.71-7.72-11.79-.14-.27-7.86-11.51-3.93-7.07-4.71-4.71-7.07-8.84-3.93-2.95-7.86-3.37-11.46-8.42-.33-.15-11.78-5.74-6.55-5.89-5.24-5.89-5.89-5.89-5.66-11.78-.24-.54-1.48.54-7.95,11.78-2.36,1.07-10.31-1.07-1.48-.33-11.78-1.64-11.78-.98-11.78-4.91-3.93-3.93,3.93-10.31,11.78-.94,1.48-.54" vector-effect="none"/>
    <path class="cls-2" d="M731.68,173.52l-6.38,11.78-1.48.54-11.78,5.36-11.78-4.42-.79-1.47-11-5.89-5.89-5.89" vector-effect="none"/>
    <path class="cls-2" d="M747.39,410.5l-2.94-1.31,2.94-2.95,10.31,2.95-10.31,1.31" vector-effect="none"/>
    <path class="cls-2" d="M751.32,444.54l4.91-11.78-8.84-7.07-5.89-4.71-5.89-2.62-11.78-7.48-2.36-1.68-5.89-11.78,8.25-11.55,11.78,1.07,11.78,2.98,11.78-2.32,3.93-1.97,7.86-2.94,11.78-8.05.17-.79-.09-11.78-.07-.09-8.16-11.69-1.35-11.78-2.28-2.72-9.82-9.06-1.97-6.73-2.08-5.05,2.08-11.25.06-.54-.06-.18-6.63-11.6-3.92-11.78-1.24-5.89-5.89-5.89-5.89-5.89-5.89-5.89-5.49-11.78-.41-.41-7.86-11.38-3.93-4.71-8.84-7.07-2.95-2.36-11.78-3.54-8.84-5.89-2.95-3.93-3.93,3.93-7.86,7.86-11.78-1.96-5.89-5.89-5.89-1.47-11.79-1.25-11.78.76-11.78.15-11.78-2.47-11.78-2.45-11.78,6.41-.79.33-11,4.71-11.78.34-11.78,5.56-5.89,1.18-5.89,1.68-11.79,2.74-8.41,7.36-3.37,2.36-11.78,6.81-3.37,2.62,3.37,4.71,5.89,7.07,5.89,3.93,11.51,7.86-1.2,11.79,1.47,1.96,6.55,9.82,5.24,6.73,5.89,5.05,5.89,3.53,11.78,2.36,11.78,4.32,3.93,1.57,7.86,5.24,8.42,6.55,3.37,4.71,5.05,7.07,6.73,6.73,5.05,5.05,6.73,5.89,11.38,5.89.41.18,11.78,2.76,11.79,2.95,11.38,5.89.41.18,11.78,6.24,6.55,5.36,1.31,11.79-3.14,11.78-4.71,1.24-11-1.24-.78-.18-.79.18-11,2.36-11.79-1.18-2.94-1.18-8.84-2.95-11.78-1.97-11.78,2.55-4.71,2.36-7.07,5.05-11.78,3.37-11.78,2.96-1.48.41-10.31,3.93-11.78,6.38-1.48,1.48-10.31,2.95-2.36-2.95-9.43-9.43-2.94-2.36-8.84-8.84-5.89-2.94-4.42-11.78-1.48-1.48-5.89-10.31-5.89-2.94-7.07-8.84-4.71-4.71-8.84-7.07-2.95-2.36-9.43-9.43-2.36-1.47-11.55-10.31-.24-.17-11.78-8.41-3.54-3.21-8.25-7.5-4.29-4.29-7.5-4.85-7.86-6.93-3.93-6.55-4.71-5.24-7.07-8.84-3.37-2.94-8.42-7.37-11.25-4.42-.54-.78-5.89-11-5.89-7.86-2.36-3.93-9.43-9.43-1.68-2.36-10.1-6.43-8.42-5.36-3.37-2.95-11.78-4.91-11.38-3.93-.41-.15-11.79-3.78-11.78-1.62h-11.78l-11.78-.35-11.78-3.17h-11.78l-11.78,1.21-11.78-1.57-10.31-2.36,10.31-1.68,8.84-10.1,2.95-2.36,11.78-7.74,2.36-1.68" vector-effect="none"/>
    <path class="cls-2" d="M511.72,397.81l-1.47-.41.69-11.79.78-.78,1.48.78-1.07,11.79-.41.41" vector-effect="none"/>
    <path class="cls-2" d="M500.72,444.54l-.79-.79-11.78-5.11-11.78,2.95-11.78-5.47-11-3.37,11-11,.41-.78,2.54-11.78-2.95-5.89-2.95-5.89-8.84-8.84-2.95-2.95-8.84-7.07-11-4.71-.78-1.47-3.93-10.31-.79-11.78-7.07-7.07-2.95-4.71-8.84-7.86-3.93-3.93-7.86-7.86-2.94-3.93-8.84-7.57-5.89-4.21-5.89-6.55-11.78-3.42-7.86-1.81-3.93-2.95-11.78-6.12-11.78-.1-5.24-2.62,5.24-11.38.21-.41-.21-.78-3.37-11-8.14-11.78-.27-.41-9.43-11.38-2.36-1.31-11.78-6.55-11.78-.56-7.86-3.37-3.93-1.96-11.78-7.2-11.78-.26-11.78.26-11-2.62-.79-.13h-11.78l-.41.13-11.38,2.62-11.78,1.1-11.78.86-11.78,3.27-7.07,3.93-4.71,4.71-1.47-4.71,1.47-4.71,3.93-7.07,1.96-11.78,5.89-9.82,3.93-1.96,7.86-3.93,11.78-5.5,3.93-2.36" vector-effect="none"/>
    <path class="cls-2" d="M523.51,279.84l-.18-.27.18-.79,4.71-11,7.07-7.07,3.93-4.71,1.96-11.78,1.97-11.78,3.93-1.68,11.78.21,11.78-.21,11.78-3.37,11.78-2.31h11.78l11.78,4,11.78,2.06,11.79,1.1.54.21,11.25,5.05,11.78,4.77,5.89,1.96,5.89,2.95,11.78.98,11.78-.98,8.84,8.84,2.95,2.36,6.73,9.42,5.05,8.84,2.95,2.95,5.3,11.78,3.53,5.05,11.78,3.79,1.07,2.95,1.7,11.78,3.96,11.78,5.05,6.43,6.55,5.36,3.1,11.78,2.14,11,.17.78-.17.41-9.43,11.38-2.36,1.18-11.78,3.54-11.78-1.77-11.78-.98-11.78-.28-11.78,2.24-5.89-3.93-5.89-2.36-11,2.36-.79.28-.41-.28-11.38-6.73-8.84-5.05-2.94-.98-11.78-4.46-11.79-1.81-11.78-1.81-3.93-2.72-7.86-6.43-5.36-5.36-6.43-7.86-3.21-3.93-8.57-9.43-2.95-2.36-8.84-4.16-11.78-5.27-5.05-2.36-6.73-2.77-11.78-4.72-4.71-4.29-7.07-11.51" vector-effect="none"/>
    <path class="cls-2" d="M597.57,444.54l-3.37-11-.79-.79.79-.33,11.78-7.53,11-3.93.78-.24,1.48.24,10.31.84,11.79.73,5.89-1.57,5.89-1.97,11.78-2.38,11.78-1.94,11.78-4.32,11.78,3.53,5.89,7.07,5.89,2.72,11.78,4.01,4.42,5.05,1.47,11.78" vector-effect="none"/>
    <path class="cls-2" d="M432.18,444.54l-2.67-11.78-.27-1.48-2.36-10.31-3.54-11.78-5.49-11.78-.41-.54-11.25-11.25-.54-.78-11-11-.79-.54-8.84-11.25-2.41-11.78,11.25-8.84,2.36-2.95-2.36-2.36-7.86-9.43-3.93-7.86-1.47-3.93-10.31-6.87-9.82-4.91-1.97-.91-11.78-3.81-11.6-7.07-.18-.13-11.78-2.49-11.78,2.29-8.42-11.45,8.42-9.82,1.07-1.97-1.07-1.96-11.78-7.46-11.78,1.57-11.78,3.93-4.71-7.86-3.14-11.78-3.93-3.93-11-7.86-.79-.54-11.78-3.39-11.78-.79-11.78,1.77-7.07-8.84-4.71-1.96-11.78-.65-11.78.76-11.78,1.21-1.47.65-10.31,6.87-4.91,4.91-6.87,6.34-10.31-6.34,1.47-11.78-1.47-11.78-1.47-5.89-2.95-5.89-8.84-5.05-11.38-6.73,7.45-11.78" vector-effect="none"/>
    <path class="cls-2" d="M547.07,293.43l-3.93-2.08-3.93-11.78,7.86-5.89,3.93-5.89,7.58-11.78.27-.41,11.78-9.02,5.89-2.36,5.89-1.47,11.78-1.89,11.78-1.87,11.78.19,11.78.84,11.79,4.04.27.17,11.51,5.05,11.78,5.55,1.47,1.18,10.31,6.87,11.78,4.7.79.21,11,2.95,10.1,8.84,1.68,1.18,8.84,10.61,2.95,5.89,3.93,5.89,7.86,10.1,1.68,1.68,7.74,11.78,2.36,3.37,5.89,8.42,4.58,11.78,1.31,10.31.17,1.47-.17.18-11.78,5.17-11.78,2.09-11.78-.89-11.78-2.34-11.78-4-.79-.21-11-1.68-11.78-2.74-11.78-4.75-11.78-1.64-2.95-.98-8.84-3.21-11.79-1-11.78-2.67-5.89-4.91-5.89-7.36-3.53-4.42-8.25-10.31-1.31-1.47-10.47-5.55-11.78-5.55-1.47-.69-10.31-5.5-11.78-4.21" vector-effect="none"/>
    <path class="cls-2" d="M611.88,444.54l4.21-11.78,1.68-1.07,11.78-1.45,11.79.17,11.78-2.18,11.78-3.72,11.78-.17,11.78-.42,11.78,8.6,11.78.11.24.13-.24.33h-11.78l-11.78,6.74-4.71,4.71" vector-effect="none"/>
    <path class="cls-2" d="M16.81,201.01l11.78-2.24,10.31-1.68,1.47-1.47h11.78l5.89-10.31-3.54-11.78" vector-effect="none"/>
    <path class="cls-2" d="M16.81,186.09l1.47-.79,7.36-11.78" vector-effect="none"/>
    <path class="cls-2" d="M408.61,444.54l-2.94-3.93-11-7.86-.79-.54-11.78-8.3-10.31-2.95-.94-11.78,11.25-11.25.28-.54-.28-.41-11.78-2.96-11.78-3.7-3.93-4.71-7.45-11.78-.41-.78-11-11,3.14-11.78v-11.78l-3.93-5.89h-11.78l-1.97-5.89,1.97-10.31.79-1.47-.79-.41-11.78-3.52-11.51-7.86-.27-.18-11.78-2.76-11.78-2.95-7.86-5.89-3.93-2.95-11.78-5.89-10.31-2.94-1.48-.79-11-11,7.07-11.78-7.86-4.71-11.78-1.18-11.78-2.95-10.31-2.95-1.47-.27-11.51-11.51-.27-.24-11.78.05-.33.18-11.46,9.82-2.36,1.96-9.43,5.89-11.78,4.58-5.89,1.31-5.89,3.93-11.78,5.5-11.78-.59-11.78-3.6-11.78-3.55-10.31-1.68-1.47-1.47-11.78-4.42-11.78-2.95-5.89-2.95,5.89-2.94,11.78-7.36.79-1.47,11-3.37,7.86,3.37,3.93,3.93,11.78,1.12,11.78,2.02,11.78-1.83,11.78-3.93,1.18-1.31,2.75-11.78-3.74-11.78-.18-.24-11.78-4.18-11.78-1.47-5.89-5.89-3.54-11.78-2.36-2.95-5.89-8.84" vector-effect="none"/>
    <path class="cls-2" d="M345.28,326.7l1.47.79,11.78-.25.79-.54-.79-1.47-5.89-10.31-5.89-2.36-3.93,2.36,2.45,11.78" vector-effect="none"/>
    <path class="cls-2" d="M358.53,433.66l-3.93-.91,3.93-5.89,2.95,5.89-2.95.91" vector-effect="none"/>
    <path class="cls-2" d="M570.64,296.9l-9.43-5.55.59-11.78,8.56-11.79.27-.27,11.78-6.8,5.89-4.71,5.89-2.36,11.78-4.71,11.78-2.36,11.78.59,11.79,3.99,9.16,4.85,2.62,1.68,11.78,8.92,1.96,1.18,9.82,4.91,11.78,5.8,2.36,1.07,9.43,4.71,10.1,7.07,1.68,1.68,5.44,10.1,5.76,11.78.59,1.96,8.42,9.82,3.37,4.71,4.42,7.07,5.01,11.78-6.06,11.78-3.37,1.24-11.78-1.15-.33-.09-11.46-3.68-11.78-3.25-11.78-3.17-3.37-1.68-8.42-5.36-11.78-6.22-.33-.21-11.45-8.42-11.78,2.53-11.79,1.96-7.86-7.86-3.93-3.93-3.93-7.86-7.86-3.37-11.78-3.7-10.1-4.71-1.68-.66-11.78-5.58" vector-effect="none"/>
    <path class="cls-2" d="M16.81,270.73l11.78-.98,11.78-.66,11.78,6.94,11.78,3.3,11.78-3.69,11.78,3.6.79.33,5.11,11.78,5.89,3.93,11.78,4.91,11.78-2.95,11.78-2.52,11.78,1.35,11.78,1.18,11.78,5.62.54.28,11.25,3.53,11.78,2.36,8.84-5.89,2.95-2.36,5.89,2.36,5.89,5.89,1.96,5.89,9.82,5.36,11.78,3.81h11.78l11.78.26,1.97,2.36,9.82,11.46.33.33,11.46,9.82,2.94,1.96,8.84,11.25.41.54,11.38,11.38.79.41,11,5.89,5.89,5.89,3.54,11.79,2.36,10.31.54,1.48,8.63,11.78-9.17,9.16-5.89,2.62,5.89,5.89,11.78,4.58,11.78-.5,11.78.34,3.93,1.47" vector-effect="none"/>
    <path class="cls-2" d="M300.15,444.54l11.25-3.53,11.78-.39,3.93,3.93" vector-effect="none"/>
    <path class="cls-2" d="M582.42,295.94l-9.17-4.58,3.27-11.78,5.89-4.29,11.78-4.55,5.89-2.95,5.89-8.84,1.68-2.95,10.1-3.53,11.78.59,7.37,2.94,4.42,1.97,11.78,8.14,2.14,1.68,6.27,11.79,3.37,4.71,11.78,2.36,11.78,4.53.41.18,11.38,5.24,6.55,6.55,5.24,3.63,5.3,8.16-.88,11.78,5.68,11.78,1.68,1.97,8.42,9.82-8.42,3.93-11.78-3.19-2.95-.74-8.84-3.21-11.78-4.64-5.89-3.93-5.89-3.37-11.78-6.45-2.36-1.96-9.42-10.47-2.36-1.31-9.42-9.43-11.79-.39-11.78-1.76-11.78-.09-.41-.12-11.38-2.77-11.78-4.43" vector-effect="none"/>
    <path class="cls-2" d="M16.81,319.97l11.78,6.2,11.78-5.36,11.78-4.21,11.78,2.25h11.78l11.78-.39,11.78-2.22,11.78,2.62,11.78,1.96,11.78-.84,8.84-5.05,2.95-2.36,11.78-2.69,11.78,3.09,4.71,1.97,7.07,3.93,11.78,3.57,6.73,4.29,5.05,5.89,11.78,1.96,11.78-1.12,11.78,4.84.54.21,11.25,11.25.54.54,11.25,11.25.41.54,5.49,11.78,1.96,11.78,3.93,10.31.78,1.48,11,7.86,1.68,3.93-1.68,2.94-8.84,8.84-2.94,3.93-7.86,7.86,7.86,3.37,8.41,8.42" vector-effect="none"/>
    <path class="cls-2" d="M311.4,423.92l-2.36-2.95,2.36-1.97,11.78,1.73.54.24-.54.21-11.78,2.74" vector-effect="none"/>
    <path class="cls-2" d="M594.21,293.43l-5.89-2.08,5.89-8.84,2.95-2.94,8.84-3.54,11.55-8.25.24-.41,11.78-6.85,11.79,3.98,4.53,3.27,3.57,11.79-5.48,11.78-2.62,2.14-11.79,3.01-11.78-1.79-11.78-1.4-11.78.12" vector-effect="none"/>
    <path class="cls-2" d="M664.91,315.13l-.18-.21.18-.33,11.78-3.96,11.78.36,11.78-2.95,10.31,6.87-10.31,10.31-11.78-.88-10.31,2.36-1.47.12-.21-.12-11.58-11.58" vector-effect="none"/>
    <path class="cls-2" d="M16.81,349.74l11.78-5.36,8.84-5.89,2.95-1.47,11.78-3.58,11.78,1.12,11.78,3.52,11.78-.13,1.47.54,10.31,1.97,5.89-1.97,5.89-2.36,5.89,2.36,5.89,1.68,11.78,3.55,11.78,1.49,11.78-3.79,5.89-2.95,5.89-2.95,11.78,2.54.79.41,11,5.89,7.86,5.89,3.93,1.07,5.89-1.07,5.89-1.31,5.89,1.31,5.89,1.68,11.78,7.15,3.93,2.95-3.52,11.78-.08,11.78-.33,1.48-10.31,10.31v11.78l-1.47.54-1.47-.54-10.31-3.93-11.78-1.31-11.78-1.5-11.78.84-11.78.66-11.78-.66-11.78.84-11.78,3.09-11.78.28-5.89,1.68-5.89,2.94h-11.78l-5.89,8.84-5.89,7.07-3.93,4.71,3.93,2.14,11.78,2.57,11.78-2.36,11.78,2.36,11.78,1.18h23.57l1.96-5.89,9.82-6.55,11.78-3.55,5.89-1.68,5.89-2.36,5.89,2.36,5.89,2.95,5.05,8.84,6.73,6.73,11.78,1.52,11.78-.09,11.78-.3,11.78,3.74.33.18" vector-effect="none"/>
    <path class="cls-2" d="M629.56,286.3l-5.89-6.73,5.89-7.86,11.79,5.89.73,1.97-.73,1.31-11.79,5.43" vector-effect="none"/>
    <path class="cls-2" d="M16.81,387.59l10.31-1.97-.88-11.78,2.03-11.78.33-.24,11.78-6.5,11.25-5.05.54-.24,11.78.03.33.21,11.46,5.36,11.78-.45,11.78-1.44,11.78-1.11h11.78l11.78.75,11.78,1.02,11.78.22,11.78-1.57,11.78.5,11.78,4.58,11.78,3.78.79.15,11,5.89,2.95,5.89-2.95,5.89-4.71,5.89-7.07,4.42-11.78.49-11.78,2.95-11.78,1.12-11.78-.14-11.78-.98-11.78.65-11.78.79-11.78.62-11.78.48-3.37,1.39-8.42,7.36-5.05,4.42-6.73,9.43-1.68,2.36-8.42,11.78,10.1,5.89,10.1,5.89" vector-effect="none"/>
    <path class="cls-2" d="M192.09,444.54l1.47-.41.54.41" vector-effect="none"/>
    <path class="cls-2" d="M16.81,433.52l4.71-.76,3.14-11.78,3.93-3.93,11.78-5.5,11.78,1.57,3.93,7.86-3.74,11.78,11.6,7.57,6.55,4.21" vector-effect="none"/>
    <path class="cls-2" d="M63.94,387.98l-2.95-2.36-2.95-11.78,5.89-7.07,11.78-2.09,11.78-.66,7.07-1.97,4.71-1.39,11.78-2.15h11.78l11.78,1.05,11.78.72,11.78.53,11.78-.84,11.78.12,3.93,1.96,7.86,7.07,11.78,3.64,1.31,1.07-1.31,1.47-11.78,3.76-8.42,6.55-3.37,1.31-11.78,2.06-11.78-.42-11.78-1.64-11.78.66-11.78,1.14-11.78.62-11.78-.25-11.78,3.79-11.78,3.22-11.78-8.12" vector-effect="none"/>
    <path class="cls-2" d="M16.81,437.32l11.78-1.81,11.78.62,11.78,4.49,5.89,3.93" vector-effect="none"/>
    <path class="cls-2" d="M75.72,381.69l-4.29-7.86,4.29-2.62,11.78-.66,11.78-.66,11.78-3.93,11.78.36,11.78,2.14,11.78-.08,11.78-.06,11.78-.39,11.78,4.42,1.68,1.47-1.68,1.31-11.78,6.19-11.78-.63-11.78-1.82-11.78-.14-11.78,1.96-11.78.98-11.78-2.62-11.78,3.18-11.78-.56" vector-effect="none"/>
    <path class="cls-2" d="M16.81,441.12l11.78-1.68,11.78,2.3,5.89,2.8" vector-effect="none"/>
    <path class="cls-2" d="M19.75,444.54l8.84-1.18,4.42,1.18" vector-effect="none"/>
  </g>
</svg>