<svg xmlns="http://www.w3.org/2000/svg" version="1.1" xmlns:xlink="http://www.w3.org/1999/xlink" width="266.6249" height="266.62"><svg id="SvgjsSvg1007" data-name="Layer_1" xmlns="http://www.w3.org/2000/svg" viewBox="0 0 266.6249 266.62">
  <defs>
    <style>
      .b {
        fill: #fff;
      }

      .b, .c {
        fill-rule: evenodd;
      }

      .d {
        stroke: #fff;
      }

      .d, .e {
        stroke-linecap: square;
        stroke-linejoin: bevel;
        stroke-width: 3px;
      }

      .e {
        fill: none;
        stroke: #f6ffc9;
      }
    </style>
  </defs>
  <rect class="d" x="-236.7622" y="-78.2345" width="586.6335" height="439"></rect>
  <path class="b" d="M-310.4401-167.37h842.67V428.88H-310.4401V-167.37" vector-effect="none"></path>
  <path class="c" d="M-266.7901-178.625h841.68V416.505H-266.7901V-178.625" vector-effect="none"></path>
  <g>
    <path class="e" d="M12.7399,42.57c-2.5813.3364-5.1066-11.4116-5.9003-12.8503.0003.0003,5.8903-5.8897,5.8903-5.8897l10.31,5.89c.5246,10.1137,1.1812,13.1274-10.31,12.85" vector-effect="none"></path>
    <path class="e" d="M48.0899,47.39l-10.31-5.89c5.4486-4.8934,15.2932-6.6144,22.0905-3.9274,13.9228,6.2174-5.9133,8.868-11.7805,9.8174" vector-effect="none"></path>
    <path class="e" d="M59.8799,68.01c-10.6986-5.6847,7.4641-8.3462,11.7801-8.8398-.0001-.0002,10.3099,5.8898,10.3099,5.8898-9.0214,10.3948-10.7339,11.7151-22.09,2.95" vector-effect="none"></path>
    <path class="e" d="M71.6599,103.3601c-5.1482-6.5244-3.6542-18.8626.0011-25.7298,14.9133,2.3934,20.2112,23.4048,28.6079,11.0009-3.9934-21.8958-27.0489-18.9032-5.0497-31.4197,18.2998-16.5559,45.7782-28.1307,70.6998-27.1031,9.8193,9.2273,13.9802,10.9172,4.418,23.1617-14.8146,16.1841-42.7127,28.2867-12.2663,47.1211.5188,20.4853-19.0673,18.9714-3.9317,30.638,5.0897-.609,14.4732-.1943,17.6696,4.7122-5.6724,9.9621-20.196,3.2754-29.4495,3.9292-10.7364-2.2028-24.7286,2.613-35.3391-.721-24.102-.2776-22.7037-21.9823-35.3501-35.6195" vector-effect="none"></path>
    <path class="e" d="M201.2799,32.66l-10.31-2.95c4.6941-2.3161,24.5907-2.7618,10.31,2.95" vector-effect="none"></path>
    <path class="e" d="M498.5899,277.1701c-26.694-21.1575-34.5655-33.9337-7.2581-58.9193-3.7834-5.863-10.3945-17.4741-13.682-23.5709-13.0637-12.0313-6.8114-24.71-22.0603-35.3494-3.0472-5.8732-4.1491-17.2091-2.8084-23.5606-2.6857-10.9865-9.27-24.258-11.5611-35.3498-5.75-9.9712-2.8848-24.5014-4.1495-35.3403-3.337-3.6058-10.1004-13.3448-11.9213-17.6695-6.3138-3.0961-17.6484-9.9224-23.5692-13.7505-8.2661-.1448-17.9456-5.1943-23.5697-10.9913-23.4921-5.9569-48.6502,7.4657-72.1605,7.0613-26.4256,2.4076-24.5337-16.0282-63.3304.0128-6.0743.2884-15.4742,8.26-20.03,11.7775-16.5464,5.6305-36.9522,9.6609-49.1992,23.5715-9.2987,8.6313-19.7723,8.754-12.4185,23.5584,5.8195,4.6526,17.3522,6.38,22.7176,11.7905-2.7617,6.2275-2.8674,17.3486.0025,23.5697,18.9527,7.3486,31.5804,28.4419,53.008,30.2991,26.3875,5.2597,2.9842,13.0953,23.5601,23.5608,8.4743,4.1199,18.8926,12.4785,23.5798,20.77,11.3269,4.3432,25.3178,10.317,35.3495,17.2809,11.3969.8781,22.8839-1.4318,11.7883,12.6589-17.5792-13.136-16.7471,3.9497-35.3481-3.5701-10.8752-2.3915-24.4809,3.7017-35.3398,1.13-6.129-5.1484-11.8116-14.3637-17.6798-19.6401-11.3648-3.8921-20.233-17.6797-29.4592-24.1009-10.1677,4.2154-24.4945,4.8072-35.351,4.4708-5.9275-3.3284-16.8626-5.0367-23.5701-4.3281-14.4097-11.3247-32.5737-21.308-47.1305-32.3203-5.9835-4.7607-17.6614-9.2849-23.5789-14.5622-13.0612-18.9776-25.6942-40.9629-40.0686-58.76-6.1464-11.267-21.1574-15.511-30.3222-23.5786-15.3776-5.988-29.3619-20.0481-35.4495-35.3401-9.9901,4.6756-3.7294,16.9974-23.8206,11.4478-10.7592-1.6883-25.6511-1.7697-35.339-7.5287-5.7796-2.5199-1.7236-10.1789.0015-14.2403,2.2308.2278,11.7392-.9782,13.258-1.4787" vector-effect="none"></path>
    <path class="e" d="M440.8799,277.1701s4.91-11.78,4.91-11.78c-9.7259-9.2404-23.8386-16.0116-34.7607-23.5592-7.2738-10.5638-5.2414-14.3723,2.3632-23.3307,5.973.0804,17.8562,2.1964,23.5572,4.0506,11.8613-1.6721,27.2799-7.4505,35.5206-16.0705,2.7097-15.4704-10.6374-19.9906-9.67-35.3404-11.5388-10.5038-18.9621-19.2507-14.0684-35.5305-5.2986-7.6771-10.3341-20.1212-11.7917-29.2695-5.2849-5.2378-12.3967-12.4299-17.6704-17.6698-2.4822-6.6483-9.3883-17.9906-13.7607-23.5696-9.5701-15.6696-29.5495-14.2589-39.2907-27.4986-7.8634,8.266-11.3756,14.1588-23.5691,9.8259-2.6314-2.8408-7.4591-7.5754-11.7805-7.356-10.4928-1.9385-24.7802-.2318-35.3492-.3414-12.3688-2.8511-25.3298-7.4367-36.1292,1.8225-9.8267,6.0787-25.0069,3.7183-34.5606,10.6079-10.6023,2.5268-24.6841,3.8673-31.9797,12.9597-19.52,12.3224-25.1418,10.2738-3.3702,27.5011,9.435,5.4793,13.3093,8.1664,10.3072,19.6494,6.692,9.6568,13.8547,22.0136,25.0431,27.0883,37.8492,4.2056,45.5348,27.6711,70.698,49.4928,13.6212,9.0434,33.5334,8.735,47.1512,17.8483,17.697,6.7734,23.777,16.7643,16.4977,35.1708-3.3821,2.0246-12.8322.3665-16.4874-.1811-6.12,2.1034-17.255,2.8112-23.5803,1.3586-10.3288-4.6419-24.3911-7.6864-35.3398-3.5474-17.4731,13.0945-43.2943,11.9152-60.3904,25.9385-2.8561-.2387-11.5597,5.6961-12.6679-.0013-8.0408-7.234-17.2164-19.031-27.101-23.5694-1.7897-7.1773-8.1301-17.3081-11.7914-23.569-4.6186-.8637-10.4288-8.2431-12.9591-11.781-19.8801-18.9348-42.9675-36.6081-63.6511-54.6381-5.0625-5.5545-14.455-10.5333-19.6489-16.0716-9.1978-14.2256-21.7602-30.5279-38.7499-35.3596-9.612-21.8101-28.0187-37.7703-47.6825-50.0975-21.7013-10.4831-46.5889-16.1503-70.6982-14.7399-14.3175-6.2217-32.3813-.281-47.1197-3.5318-8.2482-2.3205-15.0998-1.9525-.0005-4.0401,6.0143-8.3927,17.2265-16.6331,25.9305-21.8806" vector-effect="none"></path>
    <path class="e" d="M201.2799,230.44c-3.0948,1.1335-.529-12.91-.0009-12.9807,3.0879-.5522.1333,12.3563.0009,12.9807" vector-effect="none"></path>
    <path class="e" d="M190.2799,277.1701c-6.1965-5.448-17.1282-6.2417-24.3505-2.9483-5.5856-3.0345-16.6942-7.3475-22.7801-8.8415,7.5664-6.4385,18.8371-19.3186,10.999-29.4509-4.1122-9.7281-15.6356-18.1913-23.5781-24.7498-9.5443-2.6172-13.4227-7.1048-15.7087-16.4913,1.4392-11.7352-5.2144-15.1559-10.814-23.5575-18.6875-14.2631-32.6109-39.4021-55.9666-45.3323-11.6767-1.8958-22.4158-14.0042-35.3513-10.9762-14.2847-5.1931,13.0497-9.2037-11.5116-37.9718-14.441-22.8324-27.8432-15.8774-47.4093-25.538-12.5963-11.9506-32.1449-4.5027-47.1292-9.9521-6.1389-.5756-17.7041.7825-23.5693,2.7507-13.5041,1.4447-30.7729.9928-42.41,9.1595-9.9084,11.716-4.9549-7.2028-.7795-11.7799.3147-6.17,3.6808-16.8501,7.8511-21.6,7.9886-4.399,19.6757-9.0071,27.4981-13.7508" vector-effect="none"></path>
    <path class="e" d="M213.0699,112.47c1.0779-8.897,10.0261-17.4436,15.7112-23.8393,2.6751-6.4968-.0593-23.1219,7.857-25.2411,15.352,1.8268,32.3577-2.2145,47.1219-5.6814,11.1158-1.6154,24.4634,5.0131,35.3404,6.0622,14.0369-.4529,28.1198,9.4759,41.25,13.0899,7.5608,5.1801,20.8361,3.7679,29.4501,2.9497,10.6846,8.4392,18.6134,21.8574,26.5176,32.412,3.3281,10.1651,8.9997,19.5314,20.614,20.6159,2.8931,13.5235,4.7329,30.7005,18.3302,38.3011,1.4861,6.127,4.9263,17.7459,5.2382,23.9711-4.9293,7.9848-13.9945,15.0818-23.5715,16.0978-14.6638-2.3305-32.5528-4.7433-47.1186-.7874-6.0155-5.878-15.2098-6.9444-22.7806-3.9282-14.2758-6.877-30.8362-18.5068-47.9302-19.0302-23.5641-.3496-33.8366-26.896-50.0894-39.902-9.8406-4.6182-22.3619-10.4381-32.3998-14.56-10.252-2.073-19.5433-11.055-23.5602-20.5199" vector-effect="none"></path>
    <path class="e" d="M121.7399,277.1701c-3.3862-15.1984-6.692-33.3332-14.3306-47.1298-11.2152-14.9621-53.4367-40.2445-23.9903-55.9795,5.9167-3.43-6.3661-11.0005-7.8584-14.7421-1.5922-2.628-4.4453-9.0603-5.4013-11.7889-9.3073-6.9614-22.6031-13.6354-33.8799-16.499-5.4607-4.2095-16.6099-9.3402-23.5603-9.6892-11.7119,4.2369-14.2159.1531-20.1986-9.1639,1.068-2.4843,12.0832-10.7115,8.4196-13.7466-20.4879-19.0281-32.6155,8.9242-40.0504-9.8195-.3305-10.5116-9.5388-18.7816-18.0721-23.5702-10.1514-4.8478-25.2532-5.5445-36.1278-2.9505-4.6003-8.9677-13.8547-12.4054-23.5612-11.4483-11.6014.4469-26.4956.6982-35.3379,9.4893-2.8236,2.7969-8.7451,8.6205-11.7813,11.2481-9.3972-4.6074-11.6819-7.1129-8.837-18.1207.3656-42.6494-39.1031-21.3848-18.6626-47.1191" vector-effect="none"></path>
    <path class="e" d="M236.6299,126.06c-4.7026-.1458-6.5805-10.7276-7.8601-13.8611,3.8696-2.212,9.9238-7.7674,11.7898-11.7794,17.0625-34.746,71.8438-34.6088,102.1003-18.5109,6.8865,2.6616,17.638,9.27,23.5599,13.6021,10.6658,4.8256,26.0221,6.8483,33.6693,16.7004,6.9857,5.2647,12.7327,16.4877,17.4005,23.5692,10.7577,14.1886,24.4203,30.0092,30.1109,47.1294-.6207.8449,2.189,11.4442,1.3086,11.96-9.8282,5.4853-24.1993,8.5511-35.3395,6.3688-14.9261-3.2186-32.0611-8.2495-47.1301-10.967-5.6217-2.9703-17.2201-6.1978-23.56-6.3905-12.3321-6.8306-31.0746-2.1554-41.25-12.7699-5.6105-6.8654-13.2062-16.7914-18.9796-23.5612-14.2394-7.1597-30.6537-16.4726-45.8101-21.4999" vector-effect="none"></path>
    <path class="e" d="M98.1699,277.1701c-8.8764-9.7434-23.7479-20.6159-36.819-23.5812-6.7081-27.5708,33.7685-17.9314-13.2514-30.638-6.5263-8.1671-14.2472-21.6647-22.7907-28.2697,2.4019-8.4971,6.4726-22.297-.7896-29.4509-15.3586,2.4852-15.3836-5.5929-10.9889-17.6719-.5896-.6212-11.8115-3.5704-12.5719-3.9291-8.8898-8.3874-23.9424-11.0779-35.3394-13.7482-9.5431-8.5344-23.1714-15.0923-35.3599-18.4596-24.9542-18.577,8.7072-17.6778-11.7884-27.4922-50.3174-3.1307-35.1356-22.3567-59.2301-18.8705-5.8531,5.3855-16.2424,13.9636-23.2509,17.6708-6.5222,3.3643-17.9792,4.956-23.5596,9.8202-14.0361,10.4776-32.3809,2.2313-47.1206-2.2412-7.0503-.1161-16.9924-5.3297-23.5597-7.569-3.738-.8078-14.5084-3.4599-17.6686-5.8998,11.82-4.3248,24.2607-20.8492,37.3181-11.7695,5.109,7.0874,19.8383,4.2889,27.4902,7.0712,13.1406-2.0523,27.3444-2.2218,27.4885-18.8523-2.6045-23.1374-23.0653-9.985-33.3692-23.5583-1.0667-7.7024-7.223-17.5142-11.789-23.5709" vector-effect="none"></path>
    <path class="e" d="M34.8399,159.3301c-.3044.6107,17.4448,2.2302,13.2495-1.4692-5.4393-14.3626-20.1852-18.8155-13.2595,1.4692" vector-effect="none"></path>
    <path class="e" d="M48.0899,266.29c-6.9948-.1043-1.2067-3.7514-.0005-6.8014.5311,2.4048,5.4534,6.7591.0005,6.8014" vector-effect="none"></path>
    <path class="e" d="M260.1999,129.53c-30.7191-15.5102,18.6605-43.2444,35.3297-47.9687,15.6213-5.1755,33.9565-.5191,47.1304,8.7501,16.2313,14.6335,40.1754,20.3269,57.2303,33.6584,5.0957,6.1482,10.3869,18.146,13.4708,25.5198,5.1448,5.7121,12.5648,14.8291,16.2083,21.6008,5.3452,8.5855,4.8875,15.3088-1.0523,23.5595-11.8396,3.8698-27.0723-4.7185-38.7173-6.9289-16.7044-3.5826-33.4047-15.2247-47.1305-25.0601-21.7485,5.7394-28.3104,6.7737-39.2896-15.1623-13.7079-5.4043-30.1025-11.0449-43.1998-18.0185" vector-effect="none"></path>
    <path class="e" d="M-293.6301,103.3601c26.9256-4.6572,24.5596,2.3607,47.1196,8.6027,6.5932-3.4326,17.01-3.641,23.5609-.0901.7812-.7129,5.6677,11.8568,5.8996,12.1073,7.8749,6.3852,19.8694,10.668,29.45,5.8878,24.2873-8.2904,47.3407,8.1998,70.6899,11.8035,5.3928-2.7698,11.5461-11.0353,17.6793-5.8903,15.0674,22.3074,27.3637,21.1631,53.0117,21.2077,6.6719,8.4483,17.3626,20.1035,26.5193,25.9309,22.2574,34.595,38.2082,17.9603,44.2099,57.4596,9.8195,15.1792,13.4069,13.7979-5.8905,25.0425,10.1853,15.0415,30.8634,7.2465,45.1603,11.7782" vector-effect="none"></path>
    <path class="e" d="M271.9799,128.57c-11.043-3.8276-8.994-6.6035-5.8981-16.3609,5.6374-5.3416,17.0168-7.9545,23.5584-11.789,7.1482-17.7857,26.1584-18.4133,41.2408-9.8183,11.9871,5.8427,17.1632,15.6923,23.5571,26.3201,14.0492,2.7081,32.2295,7.6997,41.9022,18.8574,16.2796,8.7572,5.4288,22.1097,15.3403,35.3505,4.5285,7.2231,16.3225,11.713,1.6786,15.7184-21.7089-4.6285-43.0653-15.0831-61.2693-27.4888-5.0851-6.5313-15.5571-15.2408-21.2003-21.2093-19.2204-1.2537-41.1112-1.2353-58.9198-9.5601" vector-effect="none"></path>
    <path class="e" d="M.9599,256.5501c-7.785-7.5481,9.4952-3.5491,12.32-2.9503-.4398.3289-11.7954,2.7579-12.32,2.9503" vector-effect="none"></path>
  </g>
</svg><style>@media (prefers-color-scheme: light) { :root { filter: none; } }
@media (prefers-color-scheme: dark) { :root { filter: none; } }
</style></svg>